<svg xmlns="http://www.w3.org/2000/svg" xmlns:xlink="http://www.w3.org/1999/xlink" width="2323.01" height="941.146" viewBox="0 0 2323.01 941.146">
  <path d="M1040.203 496.82h-20.097l-28.52-236.004L883.44 503.902 774.724 260.816l-28.52 236.004h-20.097l39.238-302.613L883.44 461.984l117.525-268.16"/>
  <defs>
    <path id="a" d="M0 0h2323.008v941.147H0z"/>
  </defs>
  <clipPath id="b">
    <use xlink:href="#a" overflow="visible"/>
  </clipPath>
  <path clip-path="url(#b)" d="M1249.027 496.82h-17.61v-34.453c-8.167 13.145-17.895 22.81-29.187 28.998-11.293 6.188-24.788 9.283-40.483 9.283-25.265 0-45.78-8.484-61.537-25.457-15.76-16.97-23.64-39.3-23.64-66.99 0-28.712 7.816-51.968 23.45-69.77 15.628-17.8 35.76-26.7 60.387-26.7 17.864 0 32.252 2.967 43.162 8.9 10.91 5.934 20.193 15.792 27.85 29.573V315.75h17.608v181.07zm-17.61-90.918c0-23.86-6.348-42.78-19.044-56.752-12.698-13.973-29.57-20.96-50.627-20.96-20.035 0-36.304 7.308-48.81 21.917-12.506 14.612-18.756 33.85-18.756 57.71 0 23.35 6.346 41.917 19.044 55.698 12.696 13.782 29.636 20.672 50.82 20.672 20.542 0 36.907-7.082 49.095-21.246 12.183-14.163 18.278-33.174 18.278-57.038M1308.747 173.344h17.61V496.82h-17.61zM1418.23 249.906c0 4.34-1.563 8.04-4.69 11.1-3.127 3.064-6.794 4.595-11.004 4.595-4.34 0-8.04-1.53-11.103-4.593-3.063-3.062-4.594-6.76-4.594-11.1 0-4.338 1.53-8.04 4.593-11.103 3.063-3.062 6.763-4.594 11.103-4.594 4.21 0 7.877 1.532 11.005 4.594 3.127 3.064 4.69 6.765 4.69 11.102m-6.698 246.914h-17.61V315.75h17.61v181.07zM1610.977 496.82h-17.608V384.273c0-19.65-3.48-33.91-10.434-42.78-6.957-8.866-18.28-13.302-33.975-13.302-18.502 0-32.06 6.51-40.673 19.525-8.613 13.015-12.92 33.687-12.92 62.015v87.09h-17.61V315.75h17.61v30.242c5.743-11.993 13.208-20.702 22.395-26.127 9.188-5.422 20.926-8.135 35.22-8.135 17.862 0 31.993 5.808 42.395 17.418 10.4 11.613 15.6 27.628 15.6 48.043v119.63zM1840.09 405.52c0 26.414-9.187 48.874-27.562 67.375-18.375 18.504-40.707 27.754-66.992 27.754-25.778 0-47.757-9.25-65.94-27.755-18.184-18.5-27.275-40.96-27.275-67.375 0-26.285 9.027-48.488 27.085-66.61 18.055-18.117 40.1-27.18 66.132-27.18 26.668 0 49.095 9.03 67.28 27.085 18.18 18.058 27.273 40.29 27.273 66.705m-17.8.382c0-21.946-7.307-40.387-21.917-55.316-14.613-14.93-32.635-22.395-54.072-22.395s-39.523 7.436-54.263 22.3c-14.738 14.867-22.106 33.338-22.106 55.412 0 21.95 7.433 40.482 22.3 55.604 14.862 15.12 32.89 22.68 54.07 22.68 21.182 0 39.145-7.56 53.883-22.68 14.737-15.122 22.106-33.654 22.106-55.604M2138.493 315.75l-81.54 188.152-62.78-152.55-62.4 152.55-81.92-188.152h19.713l61.443 147 63.162-154.082 63.548 154.082 61.057-147M2323.01 315.75l-125.182 282.898h-19.524l51.68-114.843-81.156-168.055h19.715l71.395 148.148 63.355-148.148M829.36 773.29c0 52.78-14.168 93.953-42.505 123.513-28.336 29.563-67.67 44.343-117.996 44.343-49.752 0-90.094-15.823-121.026-47.48-30.932-31.65-46.398-72.93-46.398-123.836 0-50.038 15.43-91.137 46.29-123.296 30.858-32.155 70.372-48.237 118.537-48.237 31.87 0 58.512 5.23 79.926 15.683 21.414 10.457 40.845 27.725 58.295 51.806l-16.007 14.06c-14.276-20.62-31.402-36.048-51.374-46.29-19.974-10.236-42.866-15.357-68.678-15.357-43.12 0-78.195 14.384-105.234 43.153-27.038 28.77-40.558 65.94-40.558 111.507 0 42.542 13.844 77.908 41.53 106.1 27.69 28.194 62.44 42.288 104.262 42.288 40.376 0 73.58-12.113 99.61-36.34 26.03-24.227 39.044-54.797 39.044-91.715H688.327v-19.9H829.36zM1075.303 833.64c0 29.853-10.383 55.234-31.15 76.142-20.764 20.91-46 31.365-75.707 31.365-29.13 0-53.97-10.454-74.518-31.365-20.55-20.907-30.824-46.29-30.824-76.14 0-29.706 10.2-54.798 30.608-75.276 20.403-20.475 45.316-30.715 74.734-30.715 30.138 0 55.483 10.204 76.033 30.608 20.548 20.407 30.823 45.533 30.823 75.383m-20.116.434c0-24.802-8.257-45.642-24.767-62.514-16.514-16.872-36.88-25.31-61.108-25.31-24.226 0-44.667 8.403-61.323 25.2-16.657 16.803-24.985 37.676-24.985 62.623 0 24.804 8.4 45.75 25.2 62.837 16.798 17.09 37.168 25.633 61.107 25.633 23.936 0 44.236-8.544 60.89-25.633 16.656-17.087 24.985-38.032 24.985-62.836M1238.616 883.176c0 17.737-6.42 31.835-19.252 42.288-12.837 10.457-30.357 15.683-52.563 15.683-16.15 0-30.174-3.39-42.07-10.166-11.898-6.776-20.587-16.364-26.066-28.77l18.17-10.165c4.9 10.527 11.643 18.244 20.225 23.145 8.577 4.904 19.575 7.354 32.985 7.354 14.276 0 25.957-3.387 35.043-10.167 9.085-6.776 13.627-15.79 13.627-27.038 0-12.256-3.606-21.416-10.815-27.473-7.213-6.057-21.49-12.833-42.83-20.332-17.162-6.057-30.32-13.952-39.476-23.687-9.16-9.733-13.735-21.016-13.735-33.853 0-16.006 5.224-28.73 15.68-38.177 10.455-9.444 24.91-14.168 43.37-14.168 13.412 0 24.694 2.885 33.854 8.65 9.155 5.77 16.62 14.567 22.388 26.39l-18.17 9.734c-4.184-9.085-9.446-15.716-15.79-19.9-6.348-4.18-14.35-6.273-24.01-6.273-11.25 0-20.262 3.105-27.04 9.303-6.78 6.202-10.166 14.35-10.166 24.442 0 8.943 3.316 16.73 9.95 23.36 6.632 6.636 16.727 12.114 30.284 16.44 24.368 8.078 41.53 16.765 51.482 26.065 9.95 9.304 14.924 21.742 14.924 37.316m-24.442-239.67l-51.05 66.84-11.464-8.65 48.236-68.79 14.278 10.6zM1449.95 926.22c-9.81 5.05-20.48 8.8-32.015 11.25-11.538 2.45-23.938 3.677-37.205 3.677-30.574 0-55.628-9.842-75.167-29.526-19.542-19.683-29.31-44.954-29.31-75.814 0-32.156 10.2-58.222 30.607-78.196 20.404-19.97 46.974-29.958 79.71-29.958 10.957 0 21.34 1.264 31.148 3.785 9.805 2.524 19.393 6.31 28.77 11.355v20.334c-9.377-5.48-19.144-9.66-29.31-12.547-10.167-2.884-20.517-4.327-31.04-4.327-27.69 0-49.61 8.187-65.76 24.552-16.15 16.368-24.227 38.61-24.227 66.73 0 24.805 8.4 45.175 25.202 61.107 16.797 15.937 38.395 23.902 64.784 23.902 12.255 0 23.648-1.406 34.177-4.218 10.524-2.813 20.404-7.102 29.634-12.87v20.765zM1518.736 657.782c0 4.904-1.77 9.085-5.3 12.546-3.535 3.46-7.68 5.19-12.438 5.19-4.904 0-9.085-1.73-12.545-5.19-3.46-3.46-5.192-7.642-5.192-12.546 0-4.9 1.732-9.085 5.193-12.546 3.46-3.46 7.64-5.19 12.545-5.19 4.76 0 8.903 1.73 12.438 5.19 3.532 3.46 5.3 7.646 5.3 12.546m-7.57 279.038h-19.9V732.192h19.9V936.82zM1736.56 936.82h-19.9V809.63c0-22.205-3.932-38.32-11.79-48.344-7.86-10.02-20.657-15.034-38.395-15.034-20.91 0-36.232 7.355-45.966 22.064-9.735 14.71-14.602 38.07-14.602 70.084v98.42h-19.9V732.192h19.9v34.177c6.49-13.554 14.925-23.397 25.31-29.527 10.382-6.127 23.646-9.192 39.8-9.192 20.187 0 36.157 6.564 47.912 19.685 11.75 13.124 17.63 31.223 17.63 54.293V936.82zM1839.52 657.782c0 4.904-1.766 9.085-5.298 12.546-3.535 3.46-7.68 5.19-12.438 5.19-4.904 0-9.085-1.73-12.546-5.19s-5.19-7.642-5.19-12.546c0-4.9 1.73-9.085 5.19-12.546s7.642-5.19 12.546-5.19c4.76 0 8.902 1.73 12.438 5.19 3.532 3.46 5.3 7.646 5.3 12.546m-7.57 279.038h-19.9V732.192h19.9V936.82zM2075.73 833.21h-170.668c.433 28.696 7.21 50.76 20.333 66.188 13.12 15.433 31.437 23.146 54.942 23.146 16.727 0 31.074-3.676 43.046-11.032 11.968-7.354 21.847-18.527 29.634-33.527l17.304 8.87c-10.094 18.6-22.423 32.303-36.986 41.098-14.567 8.797-32.23 13.194-52.996 13.194-29.708 0-52.996-9.66-69.867-28.985-16.87-19.322-25.307-45.642-25.307-78.952 0-30.858 9.01-56.166 27.038-75.924 18.025-19.756 40.737-29.635 68.138-29.635 28.695 0 51.77 9.015 69.22 27.04 17.446 18.027 26.173 42.254 26.173 72.68v5.84zm-21.415-18.82c-1.298-20.333-8.69-36.77-22.172-49.318-13.484-12.546-30.753-18.82-51.806-18.82-19.613 0-36.377 6.312-50.29 18.93-13.92 12.62-21.814 29.093-23.688 49.425l147.955-.217zM2286.848 926.22c-9.81 5.05-20.48 8.8-32.015 11.25-11.54 2.45-23.938 3.677-37.205 3.677-30.573 0-55.627-9.842-75.166-29.526-19.543-19.683-29.31-44.954-29.31-75.814 0-32.156 10.2-58.222 30.607-78.196 20.402-19.97 46.97-29.958 79.71-29.958 10.956 0 21.338 1.264 31.146 3.785 9.806 2.524 19.394 6.31 28.77 11.355v20.334c-9.376-5.48-19.144-9.66-29.31-12.547-10.168-2.884-20.517-4.327-31.04-4.327-27.69 0-49.61 8.187-65.76 24.552-16.15 16.368-24.225 38.61-24.225 66.73 0 24.805 8.398 45.175 25.2 61.107 16.798 15.937 38.395 23.902 64.784 23.902 12.256 0 23.648-1.406 34.178-4.218 10.523-2.813 20.403-7.102 29.634-12.87v20.765z"/>
  <g>
    <defs>
      <path id="c" d="M0 0h2323.008v941.147H0z"/>
    </defs>
    <clipPath id="d">
      <use xlink:href="#c" overflow="visible"/>
    </clipPath>
    <path clip-path="url(#d)" fill-rule="evenodd" clip-rule="evenodd" fill="#E51434" d="M527.425 330.343c7.537 13.12-4.48 29.118-46.067 45.533 11.502 16.97 30.71 32.486 30.71 60.71 0 30.933-11.327 58.273-40.942 60.71 2.675 11.35 5.114 11.628 5.114 25.296v5.06c0 59.375-49.98 48.007-76.77 60.71-5.384 24.265-12.64 45.857-75.904 72.174l-16.217 59.367c74.634 0 57.745-46.248 76.768-75.89 7.087 30.075 3.23 64.77-22.292 79.248-18.48 10.482-23.134 6.59-47.817 5.953-24.392-.636-46.107 10.926-73.193 10.926v20.235c0 58.438-79.478 36.367-107.477 25.297-31.178 8.23-79.722 26.61-97.24-35.415 0-65.394 15.984-17.442-5.608-80.094-5.522-16.026-33.553-58.64-30.218-81.8 0-27.104 9.06-44.707 25.593-55.652C2.73 489.49 13.73 451.44 51.452 426.468c-5.32-9.94-10.237-14.92-10.237-30.355v-20.237c0-25.79 14.438-35.545 35.833-40.473-46.82-96.454 80.094-71.774 74.165-75.422 2.7-34.462 29.537-67.28 59.715-79.106 40.623-6.873 57.094 67.746 58.16 122.612l7.554-3.5c18.572-38.263 42.525-144.87 107.113-81.74l-42.86-183.59c63.844 196.312 57.903 181.59 43.476 300.777 25.98-10.498 29-97.374 26.72-139.424-15.59-87.7-39.398-122.217-73.46-175.86C427.78 85.44 442.132 247.504 399.47 335.4c42.647-1.687 88.64-26.462 127.955-5.06M219.785 196.96c-15.664-.364-55.734 43.616-55.734 67.616 0 11.83 10.546 15.015 15.353 35.414l66.592-5.083c5.7-35.118-3.178-91.64-26.21-97.947m-55.734 113.15c-6.434-13.255-5.888-30.357-25.59-30.357h-15.357c-21.85 0-30.707 26.25-30.707 50.593l51.37 14.593 20.285-34.83zm138.18 45.53l25.964-9.338 35.454-.78c-22.984 14.415-51.18 12.092-51.18 50.593v15.178c0 14.783 25.508 35.415 40.947 35.415 14.537 0 30.703-21.09 30.703-40.473 0-15.79-21.434-33.807-27.426-45l32.5 14.704c38.95-20.562 38.12-9.254 80.052-5.803 12.24-9.853 47.64-24.84 42.556-34.106-32.157-.217-47.074.44-86.734 9.494h-35.833c-13.822 0-14.11-2.414-25.585-5.058-4.98-37.423 28.99-120.994-14.937-112.263-32.295 5.604-55.365 90.243-87.42 112.262h30.704l10.236 15.177zm-71.65-45.53c-35.027 0-63.89 37.91-71.648 70.828l11.593 24.683 28.735 16.66.61-21.108c0-32.932 28.216-54.244 56.306-60.71-3.194-11.814-11.04-30.355-25.596-30.355m71.65 45.532c-11.478-2.645-11.77-5.06-25.588-5.06-25.36 0-61.414 37.956-61.414 55.652v20.236c0 13.53 7.39 14.96 15.352 20.237 15.98-10.577 33.49-26 56.295-15.177l15.86-67.09 5.052 1.05-5.557-9.85zm107.478 20.236c-23.56 0-10.236 14.522-10.236 30.356v15.177c0 13.663-2.44 13.947-5.116 25.295 14.435 9.553 39.77 30.356 61.415 30.356 17.97 0 34.632-22.04 34.632-40.062 0-48.86-37.58-61.122-80.694-61.122M66.812 411.29c0 4.673 26.498 34.27 30.703 40.475l48.75-38.44c-15.574-70.82-79.453-89.93-79.453-2.034m112.59 116.363c10.652-11.617 21.304-23.23 31.957-34.842l11.544-41.975-15.075-17.57-18.19-1.738c-99.865-13.54-50.687 96.126-10.237 96.126m61.414-25.296c0 18.484 14.122 40.473 30.71 40.473h10.23c13.825 0 14.114-2.415 25.592-5.06v-25.295c0-15.79 9.362-29.28 15.354-40.475-13.596-7.11-35.502-30.355-35.83-30.355-33.132 0-46.057 17.458-46.057 50.592v10.12zm184.257-15.222c8.135 34.833-2.45 49.197-5.13 80.99 37.936-19.844 46.36-28.642 45.352-68.587l-40.222-12.403zm-5.13 20.28v-15.177c0-14.178-21.327-29.205-30.71-35.414-28.68 13.303-66.53 16.17-66.53 50.59v10.12c0 121.576 91.798 38.794 97.24-10.12M64.32 439.9l-7.746-3.313c-7.098 30.086-22.75 15.15-24.418 62.805 0 13.528 21.572 33.105 29.533 38.38l33.5-27.935c.996-13.188-2.794-15.335-2.794-32.776l-1.78-17.87-26.295-19.29zm42.253 86.318c-9.88 2.158-24.414 5.19-24.414 21.672v20.236c0 18.38 29.742 40.475 51.18 40.475 15.616 0 20.652-4.857 30.71-10.117l8.783-51.198-66.26-21.067zm-80.706 6.494c-7.23 30.655-7.114 60.876 0 91.066l25.213-35.652c-3.51-7.774-4.743-7.027-4.743-20 0-10.704 1.83-6.672 5.115-20.236l-25.585-15.178zm196.475-23.415c-9.762 5.08-37.82 34.4-37.82 48.71v20.237c0 22.495 18.5 50.593 40.943 50.593 12.976 0 27.865-9.91 35.825-15.178.902-16.997 1.795-33.99 2.696-50.984-16.38-12.443-38.588-25.71-41.644-53.38m156.66 94.244c-44.46 0-65.594-19.13-66.535-60.71-14.288 9.458-35.825 22.724-35.825 45.533 0 21.524 38.89 40.474 66.536 40.474h5.12c10.405-7.384 24.723-16.474 30.705-25.297m-327.638-4.89c-4.075 17.5-10.15 16.867-10.15 35.246 0 30.747 25.15 67.426 66.532 70.83l-6.25-45.368 1.132-15.344c0-11.344 4.055-11.106 8.308-16.36l-59.573-29.003zm217.13 20.98c-10.343 4.556-37.915 23.242-37.915 34.503v25.296c0 33.698 12.245 28.972 25.596 30.354 40.66 0 46.204-10.688 61.16-47.86-23.358-5.456-37.14-17.905-48.84-42.293m-43.03 19.325c-31.866 0-49.736-11.11-56.297-35.415-11.293 7.47-46.067 24.194-46.067 35.415v15.178c0 26.272 15.004 66.304 76.766 55.65 25.11 0 10.236-19.552 10.236-35.414 0-12.834 10.023-27.545 15.36-35.415m-102.806 71.5c1.818 59.213 113.042 90.363 113.042 29.685 0-9.4-13.74-20.843-20.474-25.296-45.4 11.22-50.15 23.01-92.568-4.388m-40.5-.672c-16.013 0-30.708-13.174-30.708 10.12v20.235c0 36.82 46.68 40.473 71.65 40.473L104.85 710.39l-22.69-.606z"/>
    <path clip-path="url(#d)" fill-rule="evenodd" clip-rule="evenodd" fill="#AFCA0B" d="M342.977 128.793c-3.647-.628-14.707-.53-27.288-.42-29.984.27-66.66.598-84.398-10.046-10.474-6.284-16.538-10.213-22.672-18.95-5.842-8.33-11.77-21.247-22.03-45.57-5.36-12.704-11.32-21.673-16.974-27.993-8.153-9.114-13.98-11.782-16.544-12.518-6.814-1.952-7.404-.88-5.13-3.71l.23-.285c.615-.77 4.078-1.272 6.054-1.236 1.6.028 8.324-.976 16.936-2.26 22.26-3.317 55.458-8.26 82.288-4.388 19.517 2.814 35.13 7.62 48.96 14.89 12.516 6.572 23.536 15.24 34.96 26.453.122.12.256.287.347.434 6.837 11.656 11.035 20.47 13.833 28.667 2.84 8.34 4.18 15.756 5.29 24.65.173 1.383.35 2.766-9.906 1.473-10.257-1.292-10.435-2.68-10.6-4.067-1.14-9.06-2.45-16.458-5.11-24.26-2.684-7.882-6.795-16.482-13.523-27.972-10.765-10.54-20.9-18.56-31.998-24.39-9.854-5.183-20.407-8.526-33.06-10.35-17.627-2.544-47.09 1.843-66.843 4.788-4.99.74-9.448 1.407-13.338 1.877 5.107 2.71 11.135 6.916 16.894 13.36 5.9 6.587 12.083 15.868 17.577 28.895 10.158 24.087 16.015 36.862 21.782 45.07 5.486 7.82 10.853 11.297 20.118 16.855 7.866 4.72 35.078 4.477 57.33 4.276 15.68-.138 29.483-.26 39.372 1.454 1.38.238 2.75.48 1.473 3.12-1.28 2.636-2.658 2.394-4.03 2.153M426.77 235.527c4.62-.63 18.63-.53 34.57-.42 37.983.266 84.437.594 106.91-10.05 13.266-6.28 20.957-10.21 28.72-18.94 7.41-8.337 14.92-21.254 27.913-45.577 6.786-12.703 14.34-21.676 21.498-27.992 10.32-9.114 17.71-11.783 20.96-12.517 8.632-1.956 9.384-.88 6.498-3.715l-.288-.28c-.78-.767-5.167-1.273-7.673-1.24-2.027.026-10.536-.974-21.457-2.254-28.202-3.32-70.256-8.264-104.24-4.39-24.726 2.817-44.505 7.62-62.023 14.888-15.853 6.573-29.81 15.24-44.283 26.45-.158.127-.332.293-.44.44-8.66 11.655-13.98 20.465-17.525 28.67-3.6 8.336-5.293 15.75-6.704 24.64-.217 1.39-.44 2.77 12.55 1.48 12.994-1.293 13.216-2.68 13.433-4.068 1.434-9.06 3.095-16.458 6.466-24.26 3.4-7.882 8.604-16.483 17.134-27.972 13.636-10.542 26.474-18.56 40.533-24.395 12.486-5.178 25.853-8.517 41.88-10.344 22.33-2.547 59.648 1.84 84.667 4.782 6.336.743 11.977 1.41 16.905 1.88-6.47 2.712-14.106 6.918-21.403 13.36-7.47 6.59-15.303 15.866-22.263 28.896-12.87 24.083-20.29 36.86-27.595 45.07-6.947 7.815-13.755 11.296-25.485 16.854-9.97 4.72-44.44 4.48-72.624 4.28-19.873-.142-37.35-.264-49.88 1.45-1.747.243-3.49.483-1.865 3.116 1.628 2.637 3.367 2.4 5.11 2.16"/>
  </g>
</svg>
